
<global>
amp_veltrack=0
ampeg_release=0.45
</global>

<group>
group_label=PP
lpc_hicc1=42
lpc_locc1=0

<region>
hivel=127
key=C#6
loop_end=276374
loop_mode=loop_continuous
loop_start=57654
loop_xfade=23495
lovel=0
lpc=CV6eQpHn3cK/BpVCLtCTwaH6p0A8pE5B3VpswIlXiEELMyHBoLujQS0FL8A76P8/l+R+QTEAhcD/4vhA5i4yQc1+o8CeDXFBMGdLwHnkaEFgFKvA0BA1wrxUdEKfqnzB
lpc_rms=-26.56
sample=Oboe_sustain_PP_C#6.opus
tune=-35
</region>

<region>
hivel=127
key=C6
loop_end=270654
loop_mode=loop_continuous
loop_start=57339
loop_xfade=23366
lovel=0
lpc=kmOAQoOttsLFanZCdc5zv9LoYMHgB69BKVJbQOcwbUCoWxw/g1GJQVHQ1cDTblNBO6iPQMixAT8vwX1B6g6dwEnaJ0HwG/dAmpCxPns3rUCVgmdBw3MTQA4zAsJPUPNB
lpc_rms=-26.02
sample=Oboe_sustain_PP_C6.opus
tune=-14
</region>

<region>
hivel=127
key=D#6
loop_end=267672
loop_mode=loop_continuous
loop_start=57057
loop_xfade=23251
lovel=0
lpc=Bem7QtwECcNJkqBC+bjDQdE/UMKFJCJCDvo5PZemvcB3kqtBd8riQOeej8CcXJFBVg7zQAdx3z+KLwZBV2UwQfS8/EA8Ahe+faQjQTLQdsJn/rZCd7DgwSLxncHi39RB
lpc_rms=-21.87
sample=Oboe_sustain_PP_D#6.opus
tune=-22
</region>

<region>
hivel=127
key=D6
loop_end=274390
loop_mode=loop_continuous
loop_start=57829
loop_xfade=23566
lovel=0
lpc=O12aQvjjv8KAdQ9CmtQIQhBdqsE98cdB1YTiwPCTikC7HuxANqy3vwIvEkHiDnW+11n3P0tkQEGL+8rAuoUMQSfmREB/0xRAB9G6QGyZz0BsKWLCyx8rQlUGqEHvNAzC
lpc_rms=-27.11
sample=Oboe_sustain_PP_D6.opus
tune=-9
</region>

<region>
hivel=127
key=E6
loop_end=279281
loop_mode=loop_continuous
loop_start=57434
loop_xfade=23405
lovel=0
lpc=qmOQQlJr08Lgl4pC3OqZPjdufsEDTEVBu+T0QAhqmUBbuq0/ZPFKQa1ekUAYoJE/BIFGQWkKoUDViWe/JzuIQU0y1D94813BBSWhwUDtgEIipxrCf4i5QNpnPUF+0Ge/
lpc_rms=-23.17
sample=Oboe_sustain_PP_E6.opus
tune=-25
</region>

<region>
hikey=A6
hivel=127
lokey=F6
loop_end=259974
loop_mode=loop_continuous
loop_start=54709
loop_xfade=22295
lovel=0
lpc=szA2QsoGU8KDKrNBgTSDQZqxCMEKYWNA2ZvhQHSxs0Cc5GZAH8DFQFQU8UCxL4dAZ9SuQJcp3UBTh11AetZMQflNesEOHCvBugUsQuSKqMEt/gy+lmUnQXF2kb+/aw1A
lpc_rms=-25.46
pitch_keycenter=F6
sample=Oboe_sustain_PP_F6.opus
tune=-44
</region>

<region>
hivel=127
key=A#5
loop_end=265027
loop_mode=loop_continuous
loop_start=56689
loop_xfade=23101
lovel=0
lpc=cBwzQtvHnML8DIpCYWMawaWD/MGwuxBCX/HZv0tzh8Fk5XJB5zMdQTrLesHwABVBdVoiQYguMMHrzytBElhQwAJgqECXCABB8M2VwdYt1UGU45zArNuZwQcsEEIgIo7B
lpc_rms=-27.92
offset=1154
sample=Oboe_sustain_PP_A#5.opus
tune=+22
</region>

<region>
hivel=127
key=A5
loop_end=260116
loop_mode=loop_continuous
loop_start=57464
loop_xfade=23417
lovel=0
lpc=JhVJQnDf18IPtcpCCsp8wXGXa8JO1olC/UahwZ+IhMEQQ8FBS3TzwGpJhL/GXwZBI2vcwArihkAhTchAgB4iwTbJfEFSho/A13Q1wSo6xUFRdCrBsisqwfC3t0FrQxXB
lpc_rms=-26.47
offset=10889
sample=Oboe_sustain_PP_A5.opus
</region>

<region>
hivel=127
key=B5
loop_end=266520
loop_mode=loop_continuous
loop_start=57255
loop_xfade=23332
lovel=0
lpc=35tMQnGMmMIo5khCUNsVQSnLIcIS/hNCjDXRwJgvFcGhxXdBYstDwWmhLkEBfJFA6+5cwbQ1lEHvi5LAINMWwcY1jkEATZ3A9NWcv2Nq5kAPUzLBPr+5QTJbi8EPlDfA
lpc_rms=-29.05
sample=Oboe_sustain_PP_B5.opus
tune=+4
</region>

<region>
hivel=127
key=G#5
loop_end=269729
loop_mode=loop_continuous
loop_start=57112
loop_xfade=23274
lovel=0
lpc=1rurQr4yIMOrBPRC1bGeQVrRqcIwOiZCnTAwQlBXFcI4pwbBpJMFQr72vMCmW6pA9ONbwWcPzUHqs3tAFB/Pwa6iHULpdjjBqO+gwMUhJUEl09RAEKEvQS+PoMH+BblB
lpc_rms=-23.61
offset=584
sample=Oboe_sustain_PP_G#5.opus
tune=-9
</region>

<region>
hivel=127
key=G5
loop_end=275713
loop_mode=loop_continuous
loop_start=58835
loop_xfade=23976
lovel=0
lpc=MhMhQkKzpcJ3O5xCSNiewRbUAsI3HzVCaF2PwR8yLkCKQh3AoRMCQfy8+b8yk4vAhW0VQRDzYD6pSmXAp/IKwK8pdEGM4BfB7SU2P168zkChfbrAaSIBQcSow8A+2/5A
lpc_rms=-29.23
offset=9609
sample=Oboe_sustain_PP_G5.opus
tune=-10
</region>

<region>
hivel=127
key=D#5
loop_end=260194
loop_mode=loop_continuous
loop_start=56372
loop_xfade=22972
lovel=0
lpc=RGpKQnQxA8OW7wdD55hJwlXNBcIjiEZCc+CNwXV9K7+fUxhAshUVwcihwEFFjLPB7ZZJP25TOEEJ9MO/LN/QwJg/3sDY2+pBRK2swTn1MsB4HyhBOJSDQMJoocE0xWZB
lpc_rms=-27.41
sample=Oboe_sustain_PP_D#5.opus
</region>

<region>
hivel=127
key=D5
loop_end=265577
loop_mode=loop_continuous
loop_start=57433
loop_xfade=23405
lovel=0
lpc=U7opQrpDCcO6YDlDGrX7wrN920Fn2uxBTCyxwcFIisEkKQ9CQVlxwaoHisHm2MdBT/8DwUbbOj7ByF3A11XOQN2uE8GEybZAzMa7PwS6gj+F/0TB/nzAQfrJtsHE/hBB
lpc_rms=-25.38
sample=Oboe_sustain_PP_D5.opus
tune=+4
</region>

<region>
hivel=127
key=E5
loop_end=273866
loop_mode=loop_continuous
loop_start=57699
loop_xfade=23513
lovel=0
lpc=F3PKQtuFecMmnYJDb/z/wpSBBsHMtopC2XFCws+Mr0DAucZBfsa2wWZalUEly6HBQt1kQXtfF8B68vu/ZFG+QCY6gMB+YR9BR+Lzv4z7FcFBdTS/7mTVQeGQHcJB1MtB
lpc_rms=-23.43
sample=Oboe_sustain_PP_E5.opus
tune=-19
</region>

<region>
hivel=127
key=F#5
loop_end=268040
loop_mode=loop_continuous
loop_start=57613
loop_xfade=23478
lovel=0
lpc=hlYiQjxHxsLG69JCcsUnwklpsMHoHyVCyuaMwYpnEcFi+IpBW0dLvlvRcMHX3jVBtTwdQUnTpsE7SHpBcRS2P2H+F8F2CshALXYRQfp6isGbghNB9vBaQXbovMFLJG1B
lpc_rms=-28.00
sample=Oboe_sustain_PP_F#5.opus
tune=-8
</region>

<region>
hivel=127
key=F5
loop_end=270754
loop_mode=loop_continuous
loop_start=56759
loop_xfade=23130
lovel=0
lpc=Cy7mQoswgcOSwWNDz0AlwkMRuMJnjKZCn6dzP6fs2cG0VHlAYnwZQb4ZxEHeOkXCpDLjQSYRZkHd1dLBfuadQWEy/z/bqCjBZfK+QVCCAsJnYpRByOmnQdc9I8IYy+9B
lpc_rms=-24.52
sample=Oboe_sustain_PP_F5.opus
tune=-25
</region>

<region>
hivel=127
key=A#4
loop_end=270797
loop_mode=loop_continuous
loop_start=57251
loop_xfade=23330
lovel=0
lpc=IIcgQtkt3MK4ieNCmYEPwoe7+MFpTRxC4yLSwIj2e8GpJyxBdJFHvxgmjL/tQ1w/1n9WQKs8fMBKWRlAPB37vxbsEL6aRDFBmqK/weHur0HntkDAJAMrwa7oIkGZGUnA
lpc_rms=-27.01
sample=Oboe_sustain_PP_A#4.opus
tune=+14
</region>

<region>
hivel=127
key=B4
loop_end=273326
loop_mode=loop_continuous
loop_start=57271
loop_xfade=23339
lovel=0
lpc=2U/0QQKRs8IUIcRCVl4GwmIt7cHt1TRCwrHKwSWz3z/VKPpAhdgIwbkn8EAsP+6/16TKwA69uEAkaQdAXWCdwChWqkA/BfHA1wqjQPgIfj98RK7AqvYNQXvZ68AIihFA
lpc_rms=-29.98
sample=Oboe_sustain_PP_B4.opus
tune=+8
</region>

<region>
hivel=127
key=C#5
loop_end=254293
loop_mode=loop_continuous
loop_start=57044
loop_xfade=23246
lovel=0
lpc=JQzuQUgDs8KeBM5CHEAqwutUl8Hlou5BYpmewLBqR8FrhyNAPyk9QecMDMGB6Ta+Yk8KwH+pT0EDTzDBOYzZwOVncEHKOt+/aXxEwfSwA0H9nqBAdav0wEzqqz8fyHU/
lpc_rms=-26.92
sample=Oboe_sustain_PP_C#5.opus
tune=+10
</region>

<region>
hivel=127
key=C5
loop_end=247851
loop_mode=loop_continuous
loop_start=56014
loop_xfade=22827
lovel=0
lpc=Zy71Qed3r8JZRrlCPgDlwSoZw8GGlcNBSFGUQP0PosF5LstAgI1TQUf6OMHmiZPAvrBIQbHcgsCz/QjBgiQLQS3BlkCsQRvB4lVcv0YgukDH/6RA09GHwYD7c0HBW6rA
lpc_rms=-28.78
sample=Oboe_sustain_PP_C5.opus
tune=+9
</region>

<region>
hivel=127
key=A4
loop_end=255444
loop_mode=loop_continuous
loop_start=56457
loop_xfade=23007
lovel=0
lpc=KLhPQg2OE8O7vhZDsaMfwp+1V8JsiYJC3o/+wXUD6UDLD7VA8LFOwVlINkHqeFPBP1Y/QS2fZj7r2WTAWtm8vypn+r+GQHpBaYm5wZpgKkEtUbZAuvsWwRyNAUFXHX3A
lpc_rms=-23.17
sample=Oboe_sustain_PP_A4.opus
tune=+17
</region>

<region>
hivel=127
key=E4
loop_end=264646
loop_mode=loop_continuous
loop_start=57418
loop_xfade=23398
lovel=0
lpc=ilUiQtX/9sILIQ9D29Z2wkEix8HGuDxCtwmiwe+Gq8BT5EhBzo87wQqAsEDBTxrAfWQnQPPZAz8NGdE/5tQXwbusJEFz+P8+pBwYwdZzAUFJf/TASS9AQU+UKMHtzWlA
lpc_rms=-27.27
offset=1366
sample=Oboe_sustain_PP_E4.opus
tune=+4
</region>

<region>
hivel=127
key=F#4
loop_end=267985
loop_mode=loop_continuous
loop_start=57257
loop_xfade=23333
lovel=0
lpc=O3XAQdQgk8KIC7NC0akrwvn8gsE7+BBCAHuQwY5fTb+o+ZxAN++5wKJlBkE1XyzBiFMjQYoTlsBuchhA90KZwAMbtECntda/VOCjwHbC60BTDC7A152+v6YXvD8zr3u+
lpc_rms=-29.12
sample=Oboe_sustain_PP_F#4.opus
tune=+13
</region>

<region>
hivel=127
key=F4
loop_end=273919
loop_mode=loop_continuous
loop_start=57875
loop_xfade=23585
lovel=0
lpc=fBVaQvUhJcNxyj5DXCqqwv19xcGkXU9CwhnMwfSYFUEeRoDAGHXlwG9kYEFytkTBdNRyP5ZfF0G0SZHAmVk1wY0Qq0GdsNzAP6MCwflmgEAED1g//VJOv8+BmD8ARVK+
lpc_rms=-24.15
sample=Oboe_sustain_PP_F4.opus
tune=+4
</region>

<region>
hivel=127
key=G#4
loop_end=264760
loop_mode=loop_continuous
loop_start=57289
loop_xfade=23346
lovel=0
lpc=sE8JQoiRy8KVStFCN9NVwYGOd8KtgFRCzqOTwKECjsEaV85Ak8aHPxptYkA3FJ0/HKTiwCrvB8AImB5BWFZ0viY/G8EL/mc/pTJmQUxdI8HHNgjBPDhxQU2+78B0Lrw/
lpc_rms=-26.16
sample=Oboe_sustain_PP_G#4.opus
tune=+2
</region>

<region>
hivel=127
key=G4
loop_end=297400
loop_mode=loop_continuous
loop_start=57748
loop_xfade=23533
lovel=0
lpc=sKKgQWoVbMIw2YNCPZG4wdIvtMFrTAJChnVRwb2+t8BKMQxB9HDBwKiagUDww3a/DnulvymLRkDSJZTAGcfbP+EGakBeWofA6MmMP6uM0b2mnglA8GZgwPUgAUBtUiS+
lpc_rms=-31.29
sample=Oboe_sustain_PP_G4.opus
tune=+1
</region>

<region>
hivel=127
key=C#4
loop_end=267324
loop_mode=loop_continuous
loop_start=57587
loop_xfade=23468
lovel=0
lpc=dnstQnsnAcMW/hJDayuNwjhe6r/aDMJBLdyjwWvsZkFc+svAYThDvyzKIsDqtKO+8NYuQXVD2MAjB0c/h9MgwGqJs8B0h6ZBrVuPwQlwF8DHZilBp6Xav8fWZ8CBI7c/
lpc_rms=-28.35
sample=Oboe_sustain_PP_C#4.opus
tune=+24
</region>

<region>
hikey=C4
hivel=127
lokey=C4
loop_end=267243
loop_mode=loop_continuous
loop_start=56866
loop_xfade=23173
lovel=0
lpc=gclwQjdfO8M1HGRDsqfzwhUozEBp39BB4uwIwP1DncGLzVxB0sfLP23vR8Am04PBGN3sQRaaFcFF3CPBU6tDQFl4skDwTTY/MIkIwUT3iEAGT9JAl7wSwXJOgkBClaU9
lpc_rms=-24.96
sample=Oboe_sustain_PP_C4.opus
tune=+16
</region>

<region>
hivel=127
key=D#4
loop_end=273951
loop_mode=loop_continuous
loop_start=57240
loop_xfade=23326
lovel=0
lpc=au8qQteb88L9PPdClWHQwaZfZMIv5HBCNbdKwWofl8GR92lBjwmnwFwFOUHIlLTBnCGAQcEQ/z8Iej3Aco6mwEgdQT/VJ09BoSmgwVBDgkE/L//AIeamP3MEsz8sYAS/
lpc_rms=-26.84
sample=Oboe_sustain_PP_D#4.opus
tune=+19
</region>

<region>
hivel=127
key=D4
loop_end=269574
loop_mode=loop_continuous
loop_start=57259
loop_xfade=23334
lovel=0
lpc=/YkDQjxPx8JN2+5Cd1KJwmkHN0Hdlo1B3767wYmydEFp3q2+3vEewfH/hUA3CpZALoi5vXuUCMHYOBRB2ySRwME1G8Dqp5xARm5JQOVudMFF9pZB8GUTwRb/Z786Peg/
lpc_rms=-28.41
sample=Oboe_sustain_PP_D4.opus
tune=+16
</region>

<region>
hivel=127
key=A#3
loop_end=274205
loop_mode=loop_continuous
loop_start=57599
loop_xfade=23472
lovel=0
lpc=eb80QlFeDMMvSyRDZt+TwjtjBcFjFBZB4bKhQYus18HeTk9BYYbXQMjaZcHeHde/JJl6QR3yEcAat2bB6fGUQDkdT0Fc4LvAF3XswJziDMBmB1lBIbYtwGHkEMHyVKhA
lpc_rms=-27.16
sample=Oboe_sustain_PP_A#3.opus
tune=-1
</region>

<region>
hivel=127
key=B3
loop_end=283099
loop_mode=loop_continuous
loop_start=57713
loop_xfade=23519
lovel=0
lpc=jew8QoyVFsMRvT9D4XfywkyUDELjIN1AHy6TwVB8bkH1d4s/RQpTweelCEEwZYDA4gTAQIcfAsHPjytBvRvlwL6R9b/isblAFr5xwLuWi0Cd+SPBYHlaQV3fDcEj9xJA
lpc_rms=-26.76
sample=Oboe_sustain_PP_B3.opus
tune=+30
</region>
</group>

<group>
group_label=MF
lpc_hicc1=84
lpc_locc1=43

<region>
hivel=127
key=C#6
loop_end=235002
loop_mode=loop_continuous
loop_start=57323
loop_xfade=23360
lovel=0
lpc=WQyAQurxrMKJYHJCBZCzwVP6l0GTy9rAN+RLQSAT7UC16g7B9aqnQX/vhMAFe1pA/Qo+Qa8kxz50SlBAbwoUQeIUMUCgEo0/zr8+QbWTeb/QjztBmwc4wuMsL0JLqbDA
lpc_rms=-24.58
sample=Oboe_sustain_MF_C#6.opus
tune=-22
</region>

<region>
hivel=127
key=C6
loop_end=234414
loop_mode=loop_continuous
loop_start=57180
loop_xfade=23302
lovel=0
lpc=rH3PQZbj/8EN7rpBrPL8PrjajcCg2QxB7yLNQBkJtsBTEiJBo1sdQCRkbb/WefxA5lasPw/UqD8FXOVAbGO0PqMEtz9WsCdBUDrZwM7JKkGOv8M/2xNQQKziQMGnfDBB
lpc_rms=-28.06
sample=Oboe_sustain_MF_C6.opus
tune=-24
</region>

<region>
hivel=127
key=D#6
loop_end=233775
loop_mode=loop_continuous
loop_start=57024
loop_xfade=23238
lovel=0
lpc=HDzwQihFJ8PKEtBC7nGYQJCi5sE6H/FB7jWiQJfsm0DXqsJB/e5EQNipPkGtpp9B5rdpQFmUZkFdJ1RBqJAoQduFREEpWDBBB5o9QUbivcI6YBND64Fxwu/LMcArMeFB
lpc_rms=-20.44
sample=Oboe_sustain_MF_D#6.opus
tune=-26
</region>

<region>
hivel=127
key=D6
loop_end=234813
loop_mode=loop_continuous
loop_start=57277
loop_xfade=23341
lovel=0
lpc=OflIQsl0msL3/19Cq89WwZ2Go0B9L2VAbeoyv49puEBkk48+TEMtQDF0DUBcliVAeVi8P2GNUkBC81NAMrASv5bRQkAx859AoK8iwF3+PUFarkzCSIR4QlfV3MHzxoY/
lpc_rms=-24.47
sample=Oboe_sustain_MF_D6.opus
tune=-14
</region>

<region>
hivel=127
key=E6
loop_end=234967
loop_mode=loop_continuous
loop_start=57315
loop_xfade=23357
lovel=0
lpc=xgPIQhpeDMNaU8ZCypzlQBGJ38HP4dNBQCjZQFu4X0E0v3dBzI7cQLmuiUG0ECJBIr1aQcWNRUF1dw5BLu6hQRT9RUAuarVBup2rwjwh/UIJJz/CfdWowY1ONUJuNfHA
lpc_rms=-20.42
sample=Oboe_sustain_MF_E6.opus
tune=-11
</region>

<region>
hikey=A6
hivel=127
lokey=F6
loop_end=236343
loop_mode=loop_continuous
loop_start=57651
loop_xfade=23493
lovel=0
lpc=iiKLQofFl8LXkBpCmTMeQWg3HkGiFWHAqAERQTt6jkFA8alAmAJqQSC9tUBOqJRB4oRmQPl0dkFfYplA1760QaW+g8GvD+TBsCyaQt8WF8JtfTdB2CpWwHzNiUFpRZ3A
lpc_rms=-21.00
pitch_keycenter=F6
sample=Oboe_sustain_MF_F6.opus
tune=-46
</region>

<region>
hivel=127
key=A#5
loop_end=232305
loop_mode=loop_continuous
loop_start=56666
loop_xfade=23092
lovel=0
lpc=zgtrQgnAt8JtapNCh6dCwf+bscGkTcNBA9XgP7gGCcGbgwdBhZCyQHA5s8CgNO1A85EKQJHzE8Ab6vpA9y60v/f6zj/wgR5BKI4swXggdUGztTG/x/aWwUN5K0Iwh+XB
lpc_rms=-23.81
sample=Oboe_sustain_MF_A#5.opus
tune=-16
</region>

<region>
hivel=127
key=A5
loop_end=241200
loop_mode=loop_continuous
loop_start=58835
loop_xfade=23976
lovel=0
lpc=bccxQjqGgsIE911CgVYUwPIas8Fk6wZC5PQ+wak0OUCss0NBCZ/MPXob0j8ceeFAoxKDv8yYCUE3FARBhnhQwbfusEHkuqnADUbCQJtrC0CI+udAoPRvP3Agaj/QwUBB
lpc_rms=-21.52
offset=5795
sample=Oboe_sustain_MF_A5.opus
tune=+2
</region>

<region>
hivel=127
key=B5
loop_end=235463
loop_mode=loop_continuous
loop_start=57436
loop_xfade=23406
lovel=0
lpc=wwNWQkPdo8JdD4BClmVPPiGCIcI97zBCogUPwb+UPsFaN5VBRPW6wKSVoUBwUhy//AjRQAfJIcDF74VAb8G0QL4lrcAo2AtBMjA6QN+qkr9owfbAcO31QUjwy8FGW1M/
lpc_rms=-24.09
sample=Oboe_sustain_MF_B5.opus
tune=-1
</region>

<region>
hivel=127
key=G#5
loop_end=234717
loop_mode=loop_continuous
loop_start=57254
loop_xfade=23332
lovel=0
lpc=PFCIQmwTAcOSdQVDnoxywvCJ3sAS/jNCp6/3wdtpp0FDJzJAOjfewN99SUEVF+y/xvZmwB71s0GARW7BrPcpQdxkb0G4b9vBTlsNQvDhgsGKJUjAEAElQsEGLMLSg+1B
lpc_rms=-17.70
sample=Oboe_sustain_MF_G#5.opus
tune=+3
</region>

<region>
hivel=127
key=G5
loop_end=235058
loop_mode=loop_continuous
loop_start=57337
loop_xfade=23366
lovel=0
lpc=8Nc4Quf/vcI28r1CUF0TwsPLO8EyNshBz5lSwUvXJUGcE24+tg4lQJxJ6sCbFTZAvkqCQSADjsF3xUBBBVCYwLz0YkGShxvBe/uaQJ9tw8Cs2KZAuPKUQT1T08G1IpRB
lpc_rms=-19.69
sample=Oboe_sustain_MF_G5.opus
tune=-13
</region>

<region>
hivel=127
key=D#5
loop_end=232308
loop_mode=loop_continuous
loop_start=56666
loop_xfade=23092
lovel=0
lpc=+dspQpR4+8JamiFD3xbWwvjkqEFM8tdBya2vwch57b/E5XZBIQBJwV8S+ECcJzPBeGqBQWM/HcGCIDi+rRepQErOCsEh6khBjYEwwfFQF0HTmUjBOjp5QaDDU8F+F8tA
lpc_rms=-18.58
sample=Oboe_sustain_MF_D#5.opus
tune=+16
</region>

<region>
hivel=127
key=E5
loop_end=234192
loop_mode=loop_continuous
loop_start=57126
loop_xfade=23279
lovel=0
lpc=c1q5QhmThcPJh6dDbJtVw+2NIkJNOVZCfAVkwmk2AkI00QRB7TJGwrWdO0KgJWnB/ggCP6j1jEGw1enB+ipKQVcLGEFOQnXBeEefQfkXgsGkEJzB7C+nQidjwcKrqypC
lpc_rms=-15.06
sample=Oboe_sustain_MF_E5.opus
tune=+2
</region>

<region>
hivel=127
key=F#5
loop_end=234475
loop_mode=loop_continuous
loop_start=57195
loop_xfade=23308
lovel=0
lpc=IHcXQjOzy8I1gQBDVcWpwlNDl0FytYlBmPpxwcea8kBBHzs81FUhwScokEHeokHBdnCkQLcfFsCFGINACmcPwPy48j+yPF/AMTbdQG/1Dr/R0xfBOq2EQTnkasFaLwpB
lpc_rms=-19.43
sample=Oboe_sustain_MF_F#5.opus
tune=+15
</region>

<region>
hivel=127
key=F5
loop_end=235402
loop_mode=loop_continuous
loop_start=57421
loop_xfade=23400
lovel=0
lpc=5fKgQop3L8MUgRVDByazwYo7eMIGCy5CYXx/QeNH2sFLIl9BtLDdPz6MGEGUKtvBazooQZjktUFZN6TBTlFPv8Mhh0HvNe4/S/R/wZQPJ0GXv6lAIb9WwcmTS0DxlDRB
lpc_rms=-21.83
sample=Oboe_sustain_MF_F5.opus
tune=-2
</region>

<region>
hivel=127
key=A#4
loop_end=233861
loop_mode=loop_continuous
loop_start=57045
loop_xfade=23247
lovel=0
lpc=x3zbQY2JncL01bNCJkgmwuLGZMG19wlCw6uBwSfy08Dx6T9ByfkNwL7PO8G4y0hBNxXJP0AOXsEKhptBpoNnwTWasD5j5XBBTFjKwVb9o0Eb4BjA+8oawUgCC0HeFDnA
lpc_rms=-24.44
sample=Oboe_sustain_MF_A#4.opus
tune=+13
</region>

<region>
hivel=127
key=A4
loop_end=233203
loop_mode=loop_continuous
loop_start=56885
loop_xfade=23181
lovel=0
lpc=uqzRQYpVoMKr3MlCVRZowrgRhsA8tBVCAPwHwkNZfUFy80Q/4tG7wNQ38T8APyTAjQWoQPwS+r7RnhfAuhntv9wtjUA9ExJAySwdwRrV10A8sANAc8KxwJ7pbUBD53u/
lpc_rms=-23.31
sample=Oboe_sustain_MF_A4.opus
tune=+19
</region>

<region>
hivel=127
key=B4
loop_end=235739
loop_mode=loop_continuous
loop_start=57503
loop_xfade=23433
lovel=0
lpc=tQ7FQbSghcLy4JlCdrAXwvbWf8F11DpCdQ8ewiCJUkH/PCpBPoyhwRi5hkGrGbfA57fUv5Fw7TwROLlAmH/5wN68rEBWbQBATZcwwTShFkH9sjFAPh8YwcDXBEE2PlXA
lpc_rms=-24.11
sample=Oboe_sustain_MF_B4.opus
tune=+13
</region>

<region>
hivel=127
key=C#5
loop_end=233984
loop_mode=loop_continuous
loop_start=57075
loop_xfade=23259
lovel=0
lpc=/pGrQao0ZcK694RCAlEhwgBS4EDpmBBBpjrXwOqhor5GLCNBM7VLwXvI6UD5MiPAUGdHwGfvEUFuqBjB5VNvQLbQkr6KI75A//f6wKfN2z8SpgpAQZjRPleggsD6jR1A
lpc_rms=-25.32
sample=Oboe_sustain_MF_C#5.opus
tune=-5
</region>

<region>
hivel=127
key=C5
loop_end=233816
loop_mode=loop_continuous
loop_start=57034
loop_xfade=23242
lovel=0
lpc=S12dQVbJY8LI54xCb4AnwgF1Gb8xgLlBOEOIwRfYHkAfHIxATo1rwP2IbkB7T/nAcKQbQVzPTMCQMrnA/piHQD5wv0CSZv/A6VIfv+2X1EAAxZu+OiMZwTnwGUGSOkbA
lpc_rms=-25.61
sample=Oboe_sustain_MF_C5.opus
tune=+4
</region>

<region>
hivel=127
key=D5
loop_end=233304
loop_mode=loop_continuous
loop_start=56909
loop_xfade=23191
lovel=0
lpc=+JTWQYb9pMIMjulCZgPBwiayLkKPAHm+1eUswbBfgb/6MWdBKol/wQbRHkGircTAaDLKQKdAH8DeHG3AyH4wQf52kcF8aJNBgWwNwaBfwr/gr4M/P7PoQHVSHMF89JdA
lpc_rms=-23.24
sample=Oboe_sustain_MF_D5.opus
tune=+11
</region>

<region>
hivel=127
key=F#4
loop_end=234109
loop_mode=loop_continuous
loop_start=57106
loop_xfade=23271
lovel=0
lpc=b8sEQoqm0MJ/oghD9cOuwmRLVEFdFd1BvhXkweRNREFtvjZAksHnwFmGAUF3g5DB+lnPQWN0Z8H6aVnAq1QgQRJkycCdMwlAbPd+v+El4b9qWPZAnv8+wTAZGUGaw1TA
lpc_rms=-22.44
sample=Oboe_sustain_MF_F#4.opus
tune=+15
</region>

<region>
hivel=127
key=F4
loop_end=236124
loop_mode=loop_continuous
loop_start=57597
loop_xfade=23472
lovel=0
lpc=YLIkQq6M98JLHBZDC9mmwiXXi8AW3U5CdWYxwrSwUEHt80lBYg+wwbffskGm5M/ByhK1QVUGh8B7tzzBH/BcQf4Ge8CoOnHAYi4PQa0IUcHRRBNBi2LUv4nQyb/a/ak/
lpc_rms=-22.18
sample=Oboe_sustain_MF_F4.opus
tune=+9
</region>

<region>
hivel=127
key=G#4
loop_end=235294
loop_mode=loop_continuous
loop_start=57395
loop_xfade=23389
lovel=0
lpc=lt0AQiuTxMLGt/dCP6yJwhfJ5MBgMhFCuvA9wc+8f8G1HV9Bul5RQKKhYcH1n0dBYLSIvc3OM8GigGhBcTxQwcQ2SEHURiLBH8CAPsHKCUHcmq7AjpCqPnR2cr24pn0+
lpc_rms=-20.67
sample=Oboe_sustain_MF_G#4.opus
tune=+5
</region>

<region>
hivel=127
key=G4
loop_end=235333
loop_mode=loop_continuous
loop_start=57404
loop_xfade=23393
lovel=0
lpc=UXG1QfM8jcJ/br9CwfiGwtxXOUFDLM1BuOa9wRig2UCV1gBAg4NzwCoGbkAl50jAW7jiP5RwGb8FhDpAQZnZwFnu+0DnOmvAcCBvwJp9/UDaK6rAPPazPYOrmD/aWBQ9
lpc_rms=-25.84
sample=Oboe_sustain_MF_G4.opus
tune=+4
</region>

<region>
hivel=127
key=C#4
loop_end=235175
loop_mode=loop_continuous
loop_start=57366
loop_xfade=23377
lovel=0
lpc=BR0dQknD5MLUoQBDhjeEwvUmAkG7VXxBf76QwbxWFUHMRXFAoJmgv5YTVcHvzExA1092QeM2H8HbweQ+2JTYPxURc8Cn4gFBc5mhwE0Du8DcYBE/CwlYQe5aKsEKEApA
lpc_rms=-24.80
sample=Oboe_sustain_MF_C#4.opus
tune=+21
</region>

<region>
hikey=C4
hivel=127
lokey=C4
loop_end=236241
loop_mode=loop_continuous
loop_start=57626
loop_xfade=23483
lovel=0
lpc=TQloQgcER8MGholDrBQpw5TyM0GKGghCpeG5QJ+J2sFTjnRBmrcLQeYZ98HaHcdBiq9Dv2xvPr4MEWXBJGvgQFshNUFWAW3Aex4xwe5nY0DNhbpAMfBevxqudsBlnR9A
lpc_rms=-22.39
offset=588
sample=Oboe_sustain_MF_C4.opus
tune=+14
</region>

<region>
hivel=127
key=D#4
loop_end=234947
loop_mode=loop_continuous
loop_start=57310
loop_xfade=23355
lovel=0
lpc=yvVbQt8dMMPGLF9DSg7swr7kusHzsaNCwVE+wjWVDcHdNQFC0hoAwkk19EHWFOPBGSuCQXQjKUFR8NbBj44cQUArLkH9lYu/c9yQwSPAeEHGbWRANfBjwcKFDkFWkeG/
lpc_rms=-23.50
sample=Oboe_sustain_MF_D#4.opus
tune=+14
</region>

<region>
hivel=127
key=D4
loop_end=236729
loop_mode=loop_continuous
loop_start=57745
loop_xfade=23532
lovel=0
lpc=gZ3xQQ22tcJnldpCKAyFwmirlUGVq7JAIgkAwWcnp79GZbRAc4hFP0fQ0sC+WS5Au2SiQPVz9MC2z0xAlOSnQNIZT8HcrWxBOXXywNd1s8BvJC9BSM9owL8vCMBwQpg/
lpc_rms=-26.07
sample=Oboe_sustain_MF_D4.opus
tune=+9
</region>

<region>
hivel=127
key=E4
loop_end=232494
loop_mode=loop_continuous
loop_start=56712
loop_xfade=23111
lovel=0
lpc=Vrk6QotxDsPMTS1Dpju4whnTxsBmxypCoZinwVC/usCSewdB4wzsvx8WDUGRV6XBTgFYQWMvkEBmWTnB5u/AQHy5J0ASxjS/vl+vwKJqb0AiIJdAL9EPwQ2ygUBV+R8/
lpc_rms=-26.96
sample=Oboe_sustain_MF_E4.opus
tune=+9
</region>

<region>
hivel=127
key=A#3
loop_end=235557
loop_mode=loop_continuous
loop_start=57459
loop_xfade=23415
lovel=0
lpc=2TocQlbTA8PP3DZDe4nzwmIRoEEmsv1BvpP9wRFZckFowsJA4tRTwagyz78SwYdAk/cwQVby38C4NxjBb+GhPxCMqkH++ZfB1bxrwAcJgUHSmJTBUNGrQaSbgcEpOKFA
lpc_rms=-23.28
sample=Oboe_sustain_MF_A#3.opus
tune=+26
</region>

<region>
hivel=127
key=B3
loop_end=236432
loop_mode=loop_continuous
loop_start=57672
loop_xfade=23502
lovel=0
lpc=/oWHQhoWYMMOppNDlmw0w9CM0kG+Dd5BdwNZvwE1z8HpDqtBEtZqP2/IKMHNmnTBe+0sQizjB8KYexFBV5yyQJkxYcG8Z15BtqTDwD6IvEADaOPAm77gPwBTLj/4T4w+
lpc_rms=-21.97
sample=Oboe_sustain_MF_B3.opus
tune=+26
</region>
</group>

<group>
group_label=FF
lpc_hicc1=127
lpc_locc1=85

<region>
hivel=127
key=C#6
loop_end=286302
loop_mode=loop_continuous
loop_start=57104
loop_xfade=23271
lovel=0
lpc=g0hXQutahcJVjThCcDWKwXhYlUHDP0PARJ8BQUvXuEAK2Om+tbA7QSJq2D5VWJFAlRsDQc7vrD+CndJAq5aRQD3vqkBdAhBAZcsCQSkpSUCzcLlAxikgwtl8NkKUci/B
lpc_rms=-23.73
sample=Oboe_sustain_FF_C#6.opus
tune=-38
</region>

<region>
hivel=127
key=D#6
loop_end=273661
loop_mode=loop_continuous
loop_start=57684
loop_xfade=23507
lovel=0
lpc=TkwNQ1hbR8OgtR9DzvNxwu90lEEVZ0hBK5W9QWAJn0CDO79B7cdOQYo6ikGYhYpBVuN8QUhASEHfrahBkBqLQV+j8L6qa09CL8c+wu4TMsLNBhVD92vSwl2TdUJXx2o/
lpc_rms=-12.71
sample=Oboe_sustain_FF_D#6.opus
tune=-37
</region>

<region>
hivel=127
key=D6
loop_end=275878
loop_mode=loop_continuous
loop_start=57831
loop_xfade=23567
lovel=0
lpc=Zi+YQjwU9MLDxN9CEGkpwhspSkH31xJBfqMfQOouPUFxzyQ/XAFwQScgu74yzyRBinXnQIZ2vUCppAxBsv4KQKDAWkHLBw5AjZ3sQCE9NEGb+IrCvvznQoRepsIBlQFC
lpc_rms=-19.51
sample=Oboe_sustain_FF_D6.opus
tune=-29
</region>

<region>
hivel=127
key=E6
loop_end=283618
loop_mode=loop_continuous
loop_start=57987
loop_xfade=23631
lovel=0
lpc=8GcLQ12LW8MABEpDw3CtwqEkGEKEcItBDCqSwDh7GEJ0zidADAX5QTb9JEG8O7JBBpyqQWPvBUFPmwxC+8MEwBgIMELawoDByrWWwhfGP0MgPxjDIDTGQio6B8IfksRB
lpc_rms=-14.09
sample=Oboe_sustain_FF_E6.opus
tune=-22
</region>

<region>
hikey=A6
hivel=127
lokey=F6
loop_end=291037
loop_mode=loop_continuous
loop_start=57395
loop_xfade=23389
lovel=0
lpc=Wiu6QucnCsN/J/5C1brxwS8H7r8HBg9Cj5w3wLtbmUHAuXVBvnSJQci6i0FoQ3ZBnuKcQW7ATUFbTK1BIdAnQfd29EFeM6zCDGUPQ6T+m8Ii1l9BnBEcQigJ0sEuWqNB
lpc_rms=-16.40
pitch_keycenter=F6
sample=Oboe_sustain_FF_F6.opus
tune=-4
</region>

<region>
hivel=127
key=A#5
loop_end=275718
loop_mode=loop_continuous
loop_start=57586
loop_xfade=23467
lovel=0
lpc=k+CLQpri4cJZ1bVCz9lZwco8J8IUAl1C8arYwVQ1uEA4njJBo7OjwFfUzsDYTdxBpGvcwa9XHkHpS9hBp/ocwm3N70F8x71AoszewdeGDkJlHJPBAZyOwBJIC0KdfvnB
lpc_rms=-18.98
sample=Oboe_sustain_FF_A#5.opus
tune=-31
</region>

<region>
hivel=127
key=A5
loop_end=272365
loop_mode=loop_continuous
loop_start=57695
loop_xfade=23512
lovel=0
lpc=BJYvQqJ6kcJqCZVCf2jYwV6eN8HsqyNC2bfswdtkwkGAqTbBaoNFQeQTcEC+ioy/bKZrPupVlUE1u17BPOPFQLoImEFs0H3BaVs5QYkOTUAikvhAz9XKwE5iJUHSMXhA
lpc_rms=-17.50
sample=Oboe_sustain_FF_A5.opus
tune=-29
</region>

<region>
hivel=127
key=B5
loop_end=272955
loop_mode=loop_continuous
loop_start=57193
loop_xfade=23307
lovel=0
lpc=2MVPQu45p8LJy4xCnTBFwUGRB8Ji/WNChHkLwrlnGkHoxmdBw8Nmwd7hV0E9R12+98Wevuna1EAWpVjA0ILtQG/tcED2PSnBDnbOQV5CjMFXYUvAStYgQlqKOcK0tnlB
lpc_rms=-23.79
sample=Oboe_sustain_FF_B5.opus
tune=-33
</region>

<region>
hivel=127
key=C6
loop_end=273372
loop_mode=loop_continuous
loop_start=57095
loop_xfade=23267
lovel=0
lpc=QkJhQrG1icLw52JCLhKhweUqpEGUi5RAsOU8QZ4UZkAcblxBJ1Z/QO4fQUGyU1pAXIZuQTwxsUBtA7BAfalbQai1n0DT+h1BgQLSQJZCUUHV4lo/PTKyQclyKcKRZRVC
lpc_rms=-20.88
sample=Oboe_sustain_FF_C6.opus
tune=-37
</region>

<region>
hivel=127
key=G#5
loop_end=293109
loop_mode=loop_continuous
loop_start=56998
loop_xfade=23227
lovel=0
lpc=QEuAQqt34cLLZM5CtygTwvu/lcB1y7hB6d1BwUWyl0F/CV3Amr7EwAlIU0GL27q/cGWCQJatvz9kM29BGJFUwYz3bUEa9VO/Y6lawF7AEkFul+E+eHm0QS8t88Fcbs1B
lpc_rms=-17.27
sample=Oboe_sustain_FF_G#5.opus
tune=-10
</region>

<region>
hivel=127
key=C#5
loop_end=287511
loop_mode=loop_continuous
loop_start=56795
loop_xfade=23145
lovel=0
lpc=GTDgQSvkncITLcBCndZnwpmlD0Fi6B5B1WUqPiZStsCrbeW+RGfLQNE5vsC55vVABEJtwRW+hUGXB7fAhQTiwO2/H0FeXxvASo1ywLO5VkD3p62/igMjvzoCEEAxxuC/
lpc_rms=-21.43
sample=Oboe_sustain_FF_C#5.opus
tune=-17
</region>

<region>
hivel=127
key=D#5
loop_end=279897
loop_mode=loop_continuous
loop_start=57185
loop_xfade=23304
lovel=0
lpc=Xb1FQqcNC8OKUy1DcFPewsf8o0H0QKdBvRwEwVNR8MADpYJABTGPQCrWA8DhtWu/mr60P5j1hMAjDIRB0SDLwbdUakHGtgJBi+CCwThc1kBgbypA++/5vmkQpsD2q7NA
lpc_rms=-18.89
sample=Oboe_sustain_FF_D#5.opus
tune=-14
</region>

<region>
hivel=127
key=D5
loop_end=295756
loop_mode=loop_continuous
loop_start=56740
loop_xfade=23122
lovel=0
lpc=xIOeQcYPcsKUa6pCikyWwiNWM0Ijt2bBmksNvmP7kD8ypERAsFfCwGa/eEDPzZ2/6VFCQI1sk8C4nKZAPOaewMm3Tz+oA7xAgDQEwX+a5UDRuAnB361cQTc1WsHel7ZA
lpc_rms=-23.90
sample=Oboe_sustain_FF_D5.opus
tune=-14
</region>

<region>
hivel=127
key=E5
loop_end=273634
loop_mode=loop_continuous
loop_start=56076
loop_xfade=22852
lovel=0
lpc=eIanQtlGZ8ODr41DLq44w29dIEI52mFCRciIwlVYNkJgC63BNIwiwKqDmUErh5fB0V8gQadxlkGGqB3Cm7kMQqsnc8Ep0gzB2YiuQXqtMcCwX+nBDwx+Qrnfi8JJDgdC
lpc_rms=-13.77
sample=Oboe_sustain_FF_E5.opus
tune=-28
</region>

<region>
hikey=G5
hivel=127
lokey=F#5
loop_end=294551
loop_mode=loop_continuous
loop_start=57046
loop_xfade=23247
lovel=0
lpc=XBwFQvyWssLn9ulCPMGxwg3HJUJFmlHBqCM4QaSZDcHeV+m+PYIQQVMvGMElkSZBfQ7EwDxWKcD9oUVBH08BwUXO4cCreLFBjfe2waLvjEGBtzzBNgUyQW1/H8H2heFA
lpc_rms=-18.35
pitch_keycenter=F#5
sample=Oboe_sustain_FF_F#5.opus
tune=-11
</region>

<region>
hivel=127
key=F5
loop_end=273012
loop_mode=loop_continuous
loop_start=57543
loop_xfade=23449
lovel=0
lpc=7CfZQgHWc8PM9YBDgiIcwx+eFUIr8BpCZ+o/wt2W90FJGNHA37cGQrQqT8Jhp0ZBjzENQkbLV8Jt1GBCFpnjwayVqEA3CdZBd+QWwlATDUJsKeDBVWhLQZUYu8CU+oBB
lpc_rms=-14.60
sample=Oboe_sustain_FF_F5.opus
tune=-20
</region>

<region>
hivel=127
key=C5
loop_end=274296
loop_mode=loop_continuous
loop_start=56632
loop_xfade=23078
lovel=0
lpc=rQKRQfh4TMI6ToJC3eo/wh1Vm0GgJFtAV4lQwZ1UXkEeehvBxGKlQPTfgMDqlnZACvNOv19ouL82gq8/2b38vyXGZUAjlAXAWDDiv71lRUBTGw1AH7sBwY057EAuiRbA
lpc_rms=-23.81
sample=Oboe_sustain_FF_C5.opus
tune=-17
</region>

<region>
hivel=127
key=A#4
loop_end=293145
loop_mode=loop_continuous
loop_start=57127
loop_xfade=23280
lovel=0
lpc=aQ9rQnQiJcMvOERDHx7fwp031j+g9EpCP8AIwpkio0BpG+9AIjttwH6KWMBpeKO/rkorQQGZF8F2iAxBMJvVwBFEoT+TlyZBeD3lwY9P8EHshMzAp6h0wVN8mUEWb/bA
lpc_rms=-17.25
sample=Oboe_sustain_FF_A#4.opus
tune=-7
</region>

<region>
hivel=127
key=A4
loop_end=287344
loop_mode=loop_continuous
loop_start=56931
loop_xfade=23200
lovel=0
lpc=MvXoQXtMqsISTcFCi0QzwgHIPMEV2RtCcr0KwkvxSEERHQFBgS5fwUBw60Au5AHBW49WQX8yXcByOQXB3FMCQeWROMCHHfG+TcIwPtsZEcDIihhBdYIpwZp8gkBXW3m+
lpc_rms=-22.92
sample=Oboe_sustain_FF_A4.opus
tune=-11
</region>

<region>
hivel=127
key=B4
loop_end=234264
loop_mode=loop_continuous
loop_start=57143
loop_xfade=23287
lovel=0
lpc=OwXHQUIel8JqQcZCeV+DwkTzqEBfexpCaZQxwh/gw0Gr0IDAzjtvwJq+wkAl4gTBlTLNQCBSCMAwLKc+kNO6PyoDzr+wjMO/SDjpvmUZ+0AhAhrB0BpNQOTJU0B26jbA
lpc_rms=-23.27
sample=Oboe_sustain_FF_B4.opus
tune=-7
</region>

<region>
hivel=127
key=D#4
loop_end=294343
loop_mode=loop_continuous
loop_start=57404
loop_xfade=23393
lovel=0
lpc=1ukqQihyAsMthCJDBgi+wjeSG0E6gPtBagMOwtDrs0EYVKxAJqfXwRPXz0EqspfBm4uoQUtNwcEEGqNBMT9wwW2uMEGLXsC+ts0owbjtJEGFJe6+rw9RwJ3M3r/PUi5A
lpc_rms=-20.08
sample=Oboe_sustain_FF_D#4.opus
tune=-8
</region>

<region>
hivel=127
key=E4
loop_end=297555
loop_mode=loop_continuous
loop_start=57304
loop_xfade=23352
lovel=0
lpc=SEY7QmBPFsPrrlpDXNkww6cVeEJuBBJCVJeOwhBrgkLJrSrC1RSeQfsa28CvDYnAxr6uQSZN3cEBGGZBbBsTwKsnH0HtlZvBqU8BQS/whUH0P/7BNub5QfJgmsGgGdNA
lpc_rms=-17.81
sample=Oboe_sustain_FF_E4.opus
tune=-16
</region>

<region>
hivel=127
key=F#4
loop_end=283742
loop_mode=loop_continuous
loop_start=57584
loop_xfade=23466
lovel=0
lpc=uJrEQf6Tj8JqkrBCNA9hwgmHiEEJW7A/70ihwLFjAEF90evAUT7KQCruJcHs/BJBJMYSvxYkqsBxFARBNkcIwUAB/UBs8brAg74SwMMf8ECt5SDAwda0wFVyA0GKhnnA
lpc_rms=-23.35
sample=Oboe_sustain_FF_F#4.opus
tune=-12
</region>

<region>
hivel=127
key=F4
loop_end=285510
loop_mode=loop_continuous
loop_start=57738
loop_xfade=23529
lovel=0
lpc=StkCQh0MxMKHmP5CUH68womfKkKMy5fAmQOCwaE75kGJwNHBzWWLQRsuRMEjD0VAx4XDQNaz68And5dAvAZRwJRPIkE3qjfB8LP/P6kEgUDDR2m/H1yLwD1kkkBRPYS/
lpc_rms=-18.94
sample=Oboe_sustain_FF_F4.opus
tune=-22
</region>

<region>
hivel=127
key=G#4
loop_end=285503
loop_mode=loop_continuous
loop_start=57025
loop_xfade=23238
lovel=0
lpc=dcPVQQGgq8JDDu5CQDqowsZSlUGjS7VBMju6wengSUEyqF/BNGF8QcTJJMEiTXVAIhSRP/yB8T8XZAzBASmCQGsfWEGejebB1xfDQTW2NcDlW0fBy4FSQX6Z98CyBR9A
lpc_rms=-19.73
sample=Oboe_sustain_FF_G#4.opus
tune=-18
</region>

<region>
hivel=127
key=G4
loop_end=275638
loop_mode=loop_continuous
loop_start=56975
loop_xfade=23218
lovel=0
lpc=i2xjQT/cJsITi2JCsuEzwonKqUFOZ7jAHu8eQD+szz6z7LvA9PkwQV6CSsFOdBNBwc19wIIxyD+lebq/bBm6P5ednz+5J6bAfDfEQPmsu8CrR+NAFpP6wOQVr0AaCdu/
lpc_rms=-22.19
sample=Oboe_sustain_FF_G4.opus
tune=-12
</region>

<region>
hivel=127
key=A#3
loop_end=283701
loop_mode=loop_continuous
loop_start=57899
loop_xfade=23595
lovel=0
lpc=1/BOQld7MMNBLnxD5gIzw/1CHEKe5kJC2CiFwrO1RkKLMXXBrSJSwIbIQcF9LoNBAntcQZqQ0sH5JoxArENOQCZ4iEHaJ7fB/xKsQNUr00AXBtfAJqAaQf6sLcF5F5ZA
lpc_rms=-18.97
sample=Oboe_sustain_FF_A#3.opus
tune=-6
</region>

<region>
hivel=127
key=B3
loop_end=288841
loop_mode=loop_continuous
loop_start=58327
loop_xfade=23769
lovel=0
lpc=zZgrQvLLEcOAO1lD8/I1wxFJqUJ95tjAyel5waEb+j50o7JBNu3pwWQBiUGZDPDAl767QHRkXEBGWJ/BD3HZQXqniMEraifApWmBQZnTVcFSsxRAj/BJQMgdRsBb3LQ/
lpc_rms=-19.63
sample=Oboe_sustain_FF_B3.opus
tune=-6
</region>

<region>
hivel=127
key=C#4
loop_end=286972
loop_mode=loop_continuous
loop_start=57010
loop_xfade=23232
lovel=0
lpc=McvFQacOkcKPbbZC4Q1/ws7I30Fap/vAdpxJQAIvmb9EqUM+F2q/PzZavcA1uIFACs/iP5f9L74/Ji3ASwbmP45qqz/YaZw8reBPwOR3qb+HLONAAW+KwIeJjD4xcQA/
lpc_rms=-22.25
sample=Oboe_sustain_FF_C#4.opus
tune=-10
</region>

<region>
hikey=C4
hivel=127
lokey=C4
loop_end=293909
loop_mode=loop_continuous
loop_start=56818
loop_xfade=23154
lovel=0
lpc=RqgYQimgAsMBFUhDRwMvw3w7tkK+ocjBa8F7QKAxbMA8tHNAL3rtvxWlI8BnUA5Byqw5wTsLgUGK3dDBJSTSQXSzFcHH0e3AduhXQTG7ZsFzxWtBJeJbwdbtEkGVvRjA
lpc_rms=-19.81
sample=Oboe_sustain_FF_C4.opus
tune=-9
</region>

<region>
hivel=127
key=D4
loop_end=296263
loop_mode=loop_continuous
loop_start=57361
loop_xfade=23375
lovel=0
lpc=asLOQWXTnsJnE9FC8OmXwhphAUJOFwTBGuoYQEBeOMDlbq9AJ5tCwGDayMC15wVBWDUXQMCAA8HEaso/CgWKQAKnksBaUKZAS0PtwN+jzkCMfoDAoJeQQJq/kMAbFP0/
lpc_rms=-20.04
sample=Oboe_sustain_FF_D4.opus
tune=-11
</region>
</group>